<svg xmlns="http://www.w3.org/2000/svg" height="20" viewBox="0 -960 960 960" width="20"><path d="M331-126q-70-30-122.5-82.5T126-331q-30-70-30-149.5t30-149q30-69.5 82.5-122T331-834q70-30 149.5-30t149 30q69.5 30 122 82.5t82.5 122q30 69.5 30 149T834-331q-30 70-82.5 122.5t-122 82.5q-69.5 30-149 30T331-126Zm149-45q17-17 34-63.5T540-336H420q9 55 26 101.5t34 63.5Zm-91-10q-14-30-24.5-69T347-336H204q29 57 77 97.5T389-181Zm182 0q60-17 108-57.5t77-97.5H613q-7 47-17.5 86T571-181ZM177-408h161q-2-19-2.5-37.5T335-482q0-18 .5-35.5T338-552H177q-5 19-7 36.5t-2 35.5q0 18 2 35.5t7 36.5Zm234 0h138q2-20 2.5-37.5t.5-34.5q0-17-.5-35t-2.5-37H411q-2 19-2.5 37t-.5 35q0 17 .5 35t2.5 37Zm211 0h161q5-19 7-36.5t2-35.5q0-18-2-36t-7-36H622q2 19 2.5 37.5t.5 36.5q0 18-.5 35.5T622-408Zm-9-216h143q-29-57-77-97.5T571-779q14 30 24.5 69t17.5 86Zm-193 0h120q-9-55-26-101.5T480-789q-17 17-34 63.5T420-624Zm-216 0h143q7-47 17.5-86t24.5-69q-60 17-108 57.5T204-624Z"/></svg>